<svg xmlns="http://www.w3.org/2000/svg" version="1.1" xmlns:xlink="http://www.w3.org/1999/xlink" xmlns:svgjs="http://svgjs.dev/svgjs" width="100%" height="100%" viewBox="0 0 1000 600"><rect width="1000" height="600" x="0" y="0" fill="#99F44"/><g><circle r="166.66666666666666" cx="404.48266092936194" cy="426.7049191799325" fill="#ec449b" transform="matrix(0.5256163994369814,0,0,0.5256163994369814,0,75.71689597684528)"/><path d="M445.8399826947515 477.5560829554646L453.3915942626929 489.888570911743Q445.35102942776246 496.326455593765 435.68062036953535 499.01569856220453Q426.0102113113082 501.70494153064413 414.4654813962899 501.70494153064413L414.4654813962899 501.70494153064413Q400.3673288647734 501.70494153064413 389.1214037240261 495.5930256932815Q377.87547858327883 489.4811098559188 370.05222631145466 479.02294275643163Q362.2289740396305 468.5647756569444 358.07287127022386 454.57527940698105Q353.9167685008173 440.58578315701766 353.9167685008173 424.74913012065133L353.9167685008173 424.74913012065133Q353.9167685008173 409.9718758294279 357.69257428478795 396.7429735503363Q361.4683800687587 383.4869072008564 369.1829760590297 373.4633652275817Q376.89757204930083 363.43982325430693 388.74110673859025 357.5723840504388Q400.5846414278796 351.7049448465707 416.720099238517 351.7049448465707L416.720099238517 351.7049448465707Q427.9660243792643 351.7049448465707 437.989566352539 355.2634380674351Q448.01310832581373 358.8490953586879 455.04860255637783 365.5857848149809L455.04860255637783 365.5857848149809L446.24744375057566 376.04395191446815Q441.54805957340346 372.9200838198161 434.45823720206283 370.58397376642415Q427.36841483072214 368.2206996426439 418.26845125064887 368.2206996426439L418.26845125064887 368.2206996426439Q406.34342435019465 368.2206996426439 398.03121881138145 372.7299353270982Q389.71901327256825 377.2120069411641 384.4491836172422 384.8994388610469Q379.15218989152794 392.5868707809297 376.76175169735944 402.80056124692237Q374.37131350319095 413.01425171291504 374.37131350319095 424.4503253463803L374.37131350319095 424.4503253463803Q374.37131350319095 431.2141788730616 375.4307122483338 438.3040012444023Q376.51727506386493 445.3938236157429 378.7175647653155 452.13051307203597Q380.917854466766 458.8672025283291 384.3948554764657 464.84329801375026Q387.8718564861653 470.81939349917155 392.5984047337258 475.3014651132375Q397.3521170516745 479.8107007976917 403.4097047482606 482.4456156253547Q409.46729244484663 485.08053045301773 416.99173994239976 485.08053045301773L416.99173994239976 485.08053045301773Q421.3923193453009 485.08053045301773 425.0323047773302 484.7002334675818Q428.64512613897125 484.29277241175765 432.01347086711775 483.4235221593327Q435.38181559526424 482.5542719069078 438.72299625302253 481.1145761763291Q442.0370128403925 479.7020445161386 445.8399826947515 477.5560829554646L445.8399826947515 477.5560829554646Z " fill="#99f443" transform="matrix(0.5256163994369814,0,0,0.5256163994369814,0,75.71689597684528)"/><path d="M746.2231497269763 477.30588050237117L753.7597480678417 489.6138504547195Q745.7351685394383 496.03893609063704 736.0839850525748 498.7228326220963Q726.4328015657113 501.40672915355543 714.9110235266187 501.40672915355543L714.9110235266187 501.40672915355543Q700.8408992859386 501.40672915355543 689.6173319725636 495.30696430933Q678.3937646591887 489.20719946510445 670.5860656585801 478.76982406498524Q662.7783666579714 468.33244866486604 658.6305265638981 454.3707646880833Q654.4826864698248 440.4090807113005 654.4826864698248 424.6039122482628L654.4826864698248 424.6039122482628Q654.4826864698248 409.8560363582243 658.2509856402573 396.65343422872286Q662.0192848106901 383.4237220332471 669.7185435474014 373.4201076887173Q677.4178022841127 363.4164933441875 689.237791048923 357.560719093731Q701.0577798137333 351.7049448432745 717.1611590024886 351.7049448432745L717.1611590024886 351.7049448432745Q728.3847263158634 351.7049448432745 738.3883406603934 355.25636348591246Q748.3919550049231 358.83489219452474 755.4134620922762 365.55818855615996L755.4134620922762 365.55818855615996L746.6298007165913 375.99556395627917Q741.9397593030312 372.8779063692306 734.8640320837296 370.5464406954377Q727.788304864428 368.18786495567053 718.7064327630258 368.18786495567053L718.7064327630258 368.18786495567053Q706.8051138002925 368.18786495567053 698.5094336121458 372.68813590741024Q690.213753423999 377.1612967931756 684.954400624978 384.83344546391254Q679.6679377599826 392.5055941346495 677.282251954241 402.6989789409997Q674.8965661484995 412.89236374734986 674.8965661484995 424.3057015225451L674.8965661484995 424.3057015225451Q674.8965661484995 431.0561079501547 675.9538587214986 438.1318351694563Q677.038261360472 445.2075623887578 679.2341767043931 451.93085875039304Q681.4300920483142 458.6541551120283 684.9001804930292 464.6183696263821Q688.3702689377442 470.58258414073595 693.0874204172786 475.0557450265013Q697.8316819627873 479.556015978241 703.8772266750641 482.18569237775154Q709.9227713873411 484.8153687772621 717.4322596622319 484.8153687772621L717.4322596622319 484.8153687772621Q721.8240903500744 484.8153687772621 725.4568391906353 484.43582785362145Q729.0624779652219 484.0291768640064 732.4241261460395 483.16165475282764Q735.7857743268571 482.2941326416489 739.1203124417004 480.8572991450091Q742.4277404905692 479.44757571434366 746.2231497269763 477.30588050237117L746.2231497269763 477.30588050237117ZM821.3722526078345 501.40672915355543L821.3722526078345 501.40672915355543Q810.5553362840747 501.40672915355543 801.6090145125438 497.17755886155913Q792.6898028069875 492.92127850358844 786.2376071050955 485.4660103606462Q779.8125214691781 477.9836321517295 776.2339927605658 467.7902473453794Q772.6825741179277 457.5968625390292 772.6825741179277 445.7768737742189L772.6825741179277 445.7768737742189Q772.6825741179277 433.98399507538295 776.0984424306941 423.8719404669558Q779.5143107434603 413.7598858585286 785.8580661814549 406.41305797948365Q792.2018216194494 399.03912003446436 801.2294735889031 394.89127994039103Q810.2571255583568 390.7434398463177 821.3722526078345 390.7434398463177L821.3722526078345 390.7434398463177Q832.2162789975687 390.7434398463177 841.1897108350738 394.89127994039103Q850.1631426725787 399.03912003446436 856.6153383744706 406.41305797948365Q863.0675340763626 413.7598858585286 866.6731728509492 423.8719404669558Q870.2788116255358 433.98399507538295 870.2788116255358 445.7768737742189L870.2788116255358 445.7768737742189Q870.2788116255358 457.5968625390292 866.8087231808208 467.7902473453794Q863.3386347361059 477.9836321517295 856.9948792981113 485.4660103606462Q850.651123860117 492.92127850358844 841.5963618246888 497.17755886155913Q832.5144897232865 501.40672915355543 821.3722526078345 501.40672915355543ZM851.7355264990904 448.40655017372944L851.7355264990904 448.40655017372944Q851.7355264990904 440.5175209751978 850.0275923427071 432.8995924364095Q848.319658186324 425.28166389762123 844.60557914784 419.29033931729305Q840.891500109356 413.2719046709906 835.0357258588997 409.58493569848093Q829.1799516084432 405.87085665999695 820.9927116841939 405.87085665999695L820.9927116841939 405.87085665999695Q813.1850126835852 405.87085665999695 807.5190088949489 409.0969545109429Q801.8530051063128 412.2959422959145 798.2473663317262 417.6637353588329Q794.6417275571396 423.0315284217514 792.9337934007565 429.8632650472839Q791.2258592443734 436.6950016728165 791.2258592443734 443.9333892879641L791.2258592443734 443.9333892879641Q791.2258592443734 451.82241848649574 792.9337934007565 459.44034702528404Q794.6417275571396 467.0582755640723 798.301586463675 473.02249007842613Q801.9614453702102 478.95959452680563 807.7629994887182 482.61945343334094Q813.5645536072259 486.27931233987624 821.7789035974495 486.27931233987624L821.7789035974495 486.27931233987624Q829.4781623341607 486.27931233987624 835.1441661227971 483.05321448893034Q840.8101699114331 479.85422670395866 844.5242489499171 474.5135437070146Q848.2112179224266 469.19997077604484 849.9733722107585 462.36823415051225Q851.7355264990904 455.53649752497967 851.7355264990904 448.40655017372944ZM918.1009680042637 417.39263469908957L918.1009680042637 499.753015129121L899.5576828778183 499.753015129121L899.5576828778183 392.39715387075216L918.1009680042637 390.4452291206L918.1009680042637 408.3107625976872L924.0651825186176 397.873387197568Q925.8002267409752 396.6805442946972 928.5383434043829 395.43348125987774Q931.2764600677908 394.159308159084 934.6381082486084 393.12912565205926Q937.999756429426 392.09894314503447 941.9036059297305 391.4211914956761Q945.8074554300347 390.7434398463177 949.8197451942365 390.7434398463177L949.8197451942365 390.7434398463177Q957.5190039309477 390.7434398463177 962.8596869278917 393.23756591595657Q968.1732598588615 395.7045819196211 971.4806879077305 400.3946233331812Q974.8152260225738 405.0846647467412 976.2249494532391 411.7266309104534Q977.6346728839046 418.3685970741656 977.6346728839046 426.555836998415L977.6346728839046 426.555836998415L977.6346728839046 499.753015129121L959.0913877574592 499.753015129121L959.0913877574592 426.555836998415Q959.0913877574592 421.2964841993939 958.3594159761521 417.4739648970126Q957.6274441948451 413.6785556606056 955.8110697745644 411.1844295909667Q954.0218054202585 408.69030352132785 950.9854780311327 407.5245706844314Q947.9762607079815 406.35883784753497 943.4759897562419 406.35883784753497L943.4759897562419 406.35883784753497Q940.1685617073729 406.35883784753497 936.7526933946067 407.38902035455976Q933.3368250818403 408.39209279561015 930.0565070989458 410.0186967540703Q926.7761891160512 411.6181906465561 923.7127516609512 413.5701153967083Q920.6493142058514 415.52204014686043 918.1009680042637 417.39263469908957L918.1009680042637 417.39263469908957ZM1078.1587975167408 392.39715387075216L1095.2381390805722 390.4452291206L1059.01909093886 501.7049398792731L1038.9305320518774 499.753015129121L1004.0940972748563 392.39715387075216L1021.9325206859689 390.4452291206L1045.2742874898718 462.5580046123326L1050.4523100909698 485.22201976687717L1055.3321219663503 462.5580046123326L1078.1587975167408 392.39715387075216ZM1188.1443351746202 477.7938616899092L1198.7985911025341 487.17394451702927Q1195.7622637134086 490.29160210407787 1192.156624938822 492.92127850358844Q1188.5509861642352 495.550954903099 1184.159155476393 497.4486595213025Q1179.7673247885507 499.3734742054803 1174.4266417916065 500.3765466465307Q1169.1130688606368 501.40672915355543 1162.5795429608218 501.40672915355543L1162.5795429608218 501.40672915355543Q1149.593821359115 501.40672915355543 1140.4306190597897 496.82512800389276Q1131.2403066944898 492.24352685423 1125.438752575982 484.5171580515444Q1119.6371984574744 476.81789931483314 1116.9533019260152 466.86850510225196Q1114.2694053945559 456.91911088967083 1114.2694053945559 446.0750844999366L1114.2694053945559 446.0750844999366Q1114.2694053945559 439.1349076105067 1115.5435784953497 432.35739111692277Q1116.8177515961434 425.5798746233389 1119.3389877317566 419.42588964716475Q1121.8873339333443 413.2719046709906 1125.6827431697511 408.01255187196944Q1129.5052624721325 402.75319907294835 1134.5748448093332 398.93067977056705Q1139.644427146534 395.13527053416004 1146.0424027164772 392.93935519023887Q1152.4403782864204 390.7434398463177 1160.1396370231316 390.7434398463177L1160.1396370231316 390.7434398463177Q1170.6854526871482 390.7434398463177 1178.3847114238595 394.159308159084Q1186.111080226545 397.5751764718503 1191.1806625637457 403.72916144802446Q1196.2502449009467 409.8560363582243 1198.6901508386368 418.44992727208864Q1201.130056776327 427.04381818595306 1201.130056776327 437.4811935860722L1201.130056776327 437.4811935860722Q1201.130056776327 440.5175209751978 1200.9402863145067 444.12315974978446Q1200.7505158526862 447.72879852437103 1200.3438648630713 450.954896375317L1200.3438648630713 450.954896375317L1132.8126905210013 450.954896375317Q1132.8126905210013 458.2746141883876 1134.8188354031022 464.6183696263821Q1136.824980285203 470.9621250643766 1140.4306190597897 475.7063866098853Q1144.0362578343763 480.42353808941976 1149.1600603035256 483.10743462087896Q1154.2838627726753 485.79133115233816 1160.6276182106697 485.79133115233816L1160.6276182106697 485.79133115233816Q1166.8629333847668 485.79133115233816 1171.4987546663783 484.8695889092108Q1176.1345759479896 483.94784666608336 1179.469114062833 482.61945343334094Q1182.7765421117017 481.31817026657285 1184.8911272577 479.93555690188174Q1186.9786023377237 478.5800536031649 1188.1443351746202 477.7938616899092L1188.1443351746202 477.7938616899092ZM1146.9641449596047 436.31546074917577L1182.5867716498815 436.31546074917577Q1182.6952119137788 435.23105811020235 1182.7223219797531 434.1737655372033Q1182.7765421117017 433.08936289822987 1182.7765421117017 432.0320703252308L1182.7765421117017 432.0320703252308Q1182.7765421117017 426.44739673451767 1181.502369010908 421.7844653869319Q1180.2553059760885 417.0944239733719 1177.6527396425524 413.6243355286569Q1175.0772833749904 410.154247083942 1171.0649936107889 408.2023223337898Q1167.0798139125616 406.25039758363766 1161.6035805857457 406.25039758363766L1161.6035805857457 406.25039758363766Q1155.070054685931 406.25039758363766 1150.4342334043195 408.3649827296358Q1145.7984121227082 410.4524578096597 1142.6265344037108 413.73277579255426Q1139.4546566847137 416.9859837094745 1137.5569520665101 420.8898332097788Q1135.6321373823323 424.79368271008315 1134.6561750072563 428.3179912867468L1134.6561750072563 428.3179912867468L1129.5865926700556 438.94513714868634L1146.9641449596047 436.31546074917577ZM1277.3635622961585 407.2263599587137L1277.3635622961585 407.2263599587137Q1273.4597127958543 407.2263599587137 1269.637193493473 408.7987437852252Q1265.841784257066 410.3440175457623 1262.3174756804024 413.0008040112472Q1258.820277169713 415.63048041075774 1255.6755095166902 419.12767892144706Q1252.5578519296416 422.65198749811066 1249.928175530131 426.555836998415L1249.928175530131 426.555836998415L1249.928175530131 499.753015129121L1231.3848904036854 499.753015129121L1231.3848904036854 392.39715387075216L1249.928175530131 390.4452291206L1249.928175530131 412.40438255981184L1259.6877992808918 395.32504099598043Q1260.9619723816857 394.53884908272465 1262.8596769998892 393.72554710349465Q1264.7573816180927 392.8851350582902 1267.1972875557829 392.2616035408805Q1269.637193493473 391.61096195749644 1272.4295302888297 391.1772009019071Q1275.1947570182117 390.7434398463177 1278.1226441434399 390.7434398463177L1278.1226441434399 390.7434398463177Q1282.5144748312825 390.7434398463177 1285.4965820884593 391.5296317595734Q1288.4786893456362 392.28871360685486 1289.9426329082505 392.99357532218755L1289.9426329082505 392.99357532218755L1288.9666705331745 409.1782847088659Q1287.5027269705602 408.69030352132785 1284.5748398453318 407.9583317400208Q1281.6469527201036 407.2263599587137 1277.3635622961585 407.2263599587137ZM1369.8631074005914 397.5751764718503L1364.2242136779298 410.07291688601896Q1362.4620593895982 409.1782847088659 1360.0221534519076 408.3107625976872Q1357.5822475142177 407.4161304205341 1354.9525711147069 406.7383787711757Q1352.295784649222 406.0606271218173 1349.6118881177629 405.6810861981766Q1346.9279915863037 405.27443520856156 1344.4880856486136 405.27443520856156L1344.4880856486136 405.27443520856156Q1334.1591505123918 405.27443520856156 1329.8486500224724 408.3649827296358Q1325.5652595985273 411.4284201847357 1325.5652595985273 417.5824051609099L1325.5652595985273 417.5824051609099Q1325.5652595985273 421.6760251230346 1328.3847064598583 424.3599216544938Q1331.2312633871634 427.04381818595306 1335.7044242729287 429.18551339792555Q1340.2046952246685 431.32720860989804 1345.7080386174587 433.25202329407585Q1351.238492076223 435.1497279122794 1356.4978448752443 437.7794043117899L1356.4978448752443 437.7794043117899Q1360.3203641776254 439.6228887980447 1364.2242136779298 442.1712349996323Q1368.128063178234 444.7195812012198 1371.2457207652826 448.1354495139861Q1374.3633783523312 451.5513178267524 1376.3153031024833 455.83470825069736Q1378.2672278526354 460.1180986746424 1378.2672278526354 465.48589173756085L1378.2672278526354 465.48589173756085Q1378.2672278526354 475.353955752219 1374.9597998037666 482.18569237775154Q1371.6252616889235 489.0174290032841 1365.932147834313 493.2737093612548Q1360.211923913728 497.5028796532511 1352.539775242991 499.45480440340333Q1344.8947366382283 501.40672915355543 1336.1924054604667 501.40672915355543L1336.1924054604667 501.40672915355543Q1332.884977411598 501.40672915355543 1328.682917185576 500.78319763614576Q1324.4808569595539 500.1325560527617 1320.3059067995061 499.02104334781393Q1316.1038465734841 497.9095306428662 1312.2813272711028 496.33714681635473Q1308.485918034696 494.76476298984323 1305.9375718331082 493.0297187674858L1305.9375718331082 493.0297187674858L1312.3897675350001 480.12532736370207Q1314.7212332087931 481.31817026657285 1317.9473310597389 482.32124270762324Q1321.1734289106848 483.351425214648 1324.5892972234512 484.13761712790375Q1328.0051655362174 484.9238090411595 1331.366813717035 485.3575700967488Q1334.7284618978526 485.79133115233816 1337.3852483633375 485.79133115233816L1337.3852483633375 485.79133115233816Q1341.858409249103 485.79133115233816 1346.0062493431763 484.8695889092108Q1350.1540894372495 483.94784666608336 1353.3259671562469 481.88748165203384Q1356.4978448752443 479.85422670395866 1358.3955494934478 476.57390872106413Q1360.3203641776254 473.2935907381695 1360.3203641776254 468.5222191266865L1360.3203641776254 468.5222191266865Q1360.3203641776254 464.9165803520998 1358.8022004830625 462.1784636886919Q1357.2840367884999 459.44034702528404 1354.7085805209379 457.3528719452602Q1352.1060141874016 455.238286799262 1348.6901458746354 453.50324257690454Q1345.2742775618692 451.7410882885727 1341.4788683254621 450.1144843301126Q1337.6563490230808 448.5149904376268 1333.6711693248535 446.80705628124366Q1329.658879560652 445.0991221248605 1326.0532407860653 443.038757110811L1326.0532407860653 443.038757110811Q1322.6373724732991 441.08683236065883 1319.4654947543017 438.755366686866Q1316.2936170353044 436.42390101307313 1313.8537110976142 433.49601388784487Q1311.413805159924 430.56812676261666 1309.94986159731 426.90826785608135Q1308.485918034696 423.24840894954605 1308.485918034696 418.558367535986L1308.485918034696 418.558367535986Q1308.485918034696 411.1302094590181 1311.1155944342065 405.81663652804826Q1313.745270833717 400.5030635970785 1318.5437525111745 397.1685254822352Q1323.3151241226574 393.8610974333663 1330.065530550267 392.28871360685486Q1336.788826911902 390.7434398463177 1344.8947366382283 390.7434398463177L1344.8947366382283 390.7434398463177Q1348.6088156767125 390.7434398463177 1352.2144544512992 391.31275123177875Q1355.8200932258858 391.90917268321414 1359.1275212747546 392.83091492634156Q1362.4620593895982 393.75265716946893 1365.2001760530059 395.02683027026274Q1367.9111826504393 396.30100337105654 1369.8631074005914 397.5751764718503L1369.8631074005914 397.5751764718503ZM1475.3754841727057 482.18569237775154L1477.3274089228578 499.753015129121L1456.83219904626 499.753015129121L1456.83219904626 483.94784666608336L1447.6689967469345 494.8732032537406Q1445.988172656526 496.1473763545344 1443.846477444553 497.3131091914308Q1441.7047822325806 498.4788420283272 1439.5088668886597 499.40058427145465Q1437.3129515447383 500.3494365805564 1435.1170362008172 500.8645278340687Q1432.921120856896 501.40672915355543 1431.0776363706414 501.40672915355543L1431.0776363706414 501.40672915355543Q1423.7579185575705 501.40672915355543 1417.0617322619098 499.1294836117113Q1410.3655459662489 496.82512800389276 1405.3501837609967 492.37907718410173Q1400.3348215557446 487.9330263643107 1397.352714298568 481.34528033254713Q1394.3706070413907 474.7575343007836 1394.3706070413907 466.1907534528936L1394.3706070413907 466.1907534528936Q1394.3706070413907 457.10888135149116 1398.0304659479264 450.4126950558303Q1401.6903248544616 443.74361882614375 1407.4105487750464 439.2975680063527Q1413.1036626296566 434.8515171865617 1420.1251697170098 432.65560184264046Q1427.173786870337 430.4596864987193 1433.8970832319721 430.4596864987193L1433.8970832319721 430.4596864987193Q1439.4546467567109 430.4596864987193 1443.7109271146817 431.0561079501547Q1447.940097406678 431.62541933561573 1450.8679845319061 432.41161124887145L1450.8679845319061 432.41161124887145Q1454.2838528446725 433.2791333600502 1456.83219904626 434.3635359990236L1456.83219904626 434.3635359990236L1456.83219904626 430.9476676862574Q1456.83219904626 425.2003336996982 1456.1544473969018 420.59162248406113Q1455.4766957475433 416.01002133439846 1453.362110601545 412.8381436154012Q1451.2746355215213 409.66626589640396 1447.3165658892683 408.01255187196944Q1443.3584962570153 406.35883784753497 1436.8249703572003 406.35883784753497L1436.8249703572003 406.35883784753497Q1431.5656175581792 406.35883784753497 1426.685805682799 407.09080962884207Q1421.8059938074184 407.8227814101491 1417.9834745050373 408.69030352132785L1417.9834745050373 408.69030352132785Q1413.5103136192718 409.77470616030126 1409.6877943168904 410.9404389971977L1409.6877943168904 410.9404389971977L1402.6662872295376 397.873387197568Q1406.9496776534827 395.9214624474158 1412.425910980298 394.3490786209043L1412.425910980298 394.3490786209043Q1417.1159523938584 392.99357532218755 1423.541038029776 391.85495255126546Q1429.993233731668 390.7434398463177 1437.8009327322764 390.7434398463177L1437.8009327322764 390.7434398463177Q1449.0245000456514 390.7434398463177 1456.3442178587222 393.75265716946893Q1463.6639356717926 396.78898455859456 1467.8659958978146 402.2652178854103Q1472.0680561238366 407.71434114625174 1473.7217701482712 415.3864898169887Q1475.3754841727057 423.0315284217514 1475.3754841727057 432.41161124887145L1475.3754841727057 432.41161124887145L1475.3754841727057 482.18569237775154ZM1456.83219904626 473.02249007842613L1456.83219904626 447.72879852437103Q1454.094082382852 447.34925760073037 1450.9764247958035 446.9426066111153L1450.9764247958035 446.9426066111153Q1448.346748396293 446.67150595137196 1444.9308800835267 446.37329522565426Q1441.5150117707606 446.0750844999366 1437.8009327322764 446.0750844999366L1437.8009327322764 446.0750844999366Q1432.3246994054607 446.0750844999366 1427.7973183877466 447.15948713891004Q1423.2699373700327 448.21677971190906 1419.9353992551894 450.6024655176506Q1416.6279712063204 453.0152613893665 1414.757376654091 456.81067062577347Q1412.9138921678364 460.6060798621805 1412.9138921678364 466.08231318899624L1412.9138921678364 466.08231318899624Q1412.9138921678364 470.4741438768386 1414.3778357304507 474.0797826514252Q1415.8417792930647 477.6854214260118 1418.3901254946522 480.3422078914968Q1420.9113616302654 482.97188429100726 1424.3814500749804 484.38160772167276Q1427.8515385196954 485.79133115233816 1431.8367182179227 485.79133115233816L1431.8367182179227 485.79133115233816Q1433.7073127701517 485.79133115233816 1435.7947878501757 485.24912983285145Q1437.9093729961737 484.73403857933914 1439.9968480761975 483.83940640218606Q1442.0843231562214 482.97188429100726 1444.1989083022197 481.8061514541109Q1446.2863833822435 480.6133085512401 1448.1569779344727 479.44757571434366L1448.1569779344727 479.44757571434366Q1452.548808622315 476.62812885301275 1456.83219904626 473.02249007842613L1456.83219904626 473.02249007842613ZM1528.0774524268138 408.01255187196944L1528.0774524268138 463.04598579987066Q1528.0774524268138 469.49818150176253 1528.8094242081208 473.8357920576562Q1529.5413959894279 478.1734026135499 1530.9511194200934 480.8572991450091Q1532.360842850759 483.5411956764683 1534.4754279967572 484.67981844739046Q1536.5629030767807 485.79133115233816 1539.3010197401888 485.79133115233816L1539.3010197401888 485.79133115233816Q1541.4427149521614 485.79133115233816 1543.204869240493 485.54734055856915Q1544.9670235288252 485.30334996480013 1546.2411966296188 484.9238090411595L1546.2411966296188 484.9238090411595Q1547.7051401922329 484.5171580515444 1548.8708730291294 484.0291768640064L1548.8708730291294 484.0291768640064L1555.5941693907644 495.8491656288167Q1554.8079774775085 496.6353575420724 1553.1000433211254 497.5570997851998Q1551.3921091647424 498.4788420283272 1549.0606434909498 499.3734742054803Q1546.7291778171568 500.24099631665905 1543.7470705599799 500.83741776809444Q1540.764963302803 501.40672915355543 1537.3490949900367 501.40672915355543L1537.3490949900367 501.40672915355543Q1528.5654336143518 501.40672915355543 1523.0892002875362 498.1806313026095Q1517.6400770266946 494.9816435176379 1514.603749637569 489.3969699269248Q1511.5945323144178 483.83940640218606 1510.564349807393 476.46546845716676Q1509.5341673003684 469.1186405781218 1509.5341673003684 460.7145201260778L1509.5341673003684 460.7145201260778L1509.5341673003684 408.01255187196944L1494.8947316742272 408.01255187196944L1494.8947316742272 392.39715387075216L1509.5341673003684 392.39715387075216L1509.5341673003684 372.01038425805183L1527.5894712392758 361.1663578683176L1527.5894712392758 392.39715387075216L1560.7721919918624 392.39715387075216L1558.8202672417103 408.01255187196944L1528.0774524268138 408.01255187196944ZM1651.7264633357584 477.7938616899092L1662.3807192636723 487.17394451702927Q1659.3443918745468 490.29160210407787 1655.73875309996 492.92127850358844Q1652.1331143253735 495.550954903099 1647.7412836375308 497.4486595213025Q1643.3494529496886 499.3734742054803 1638.0087699527446 500.3765466465307Q1632.695197021775 501.40672915355543 1626.16167112196 501.40672915355543L1626.16167112196 501.40672915355543Q1613.175949520253 501.40672915355543 1604.0127472209276 496.82512800389276Q1594.822434855628 492.24352685423 1589.0208807371203 484.5171580515444Q1583.2193266186125 476.81789931483314 1580.5354300871531 466.86850510225196Q1577.851533555694 456.91911088967083 1577.851533555694 446.0750844999366L1577.851533555694 446.0750844999366Q1577.851533555694 439.1349076105067 1579.1257066564876 432.35739111692277Q1580.3998797572815 425.5798746233389 1582.9211158928947 419.42588964716475Q1585.4694620944822 413.2719046709906 1589.2648713308893 408.01255187196944Q1593.0873906332706 402.75319907294835 1598.1569729704713 398.93067977056705Q1603.226555307672 395.13527053416004 1609.6245308776151 392.93935519023887Q1616.0225064475583 390.7434398463177 1623.72176518427 390.7434398463177L1623.72176518427 390.7434398463177Q1634.2675808482861 390.7434398463177 1641.9668395849974 394.159308159084Q1649.6932083876832 397.5751764718503 1654.7627907248839 403.72916144802446Q1659.8323730620848 409.8560363582243 1662.272278999775 418.44992727208864Q1664.712184937465 427.04381818595306 1664.712184937465 437.4811935860722L1664.712184937465 437.4811935860722Q1664.712184937465 440.5175209751978 1664.5224144756446 444.12315974978446Q1664.3326440138244 447.72879852437103 1663.9259930242094 450.954896375317L1663.9259930242094 450.954896375317L1596.3948186821397 450.954896375317Q1596.3948186821397 458.2746141883876 1598.4009635642403 464.6183696263821Q1600.407108446341 470.9621250643766 1604.0127472209276 475.7063866098853Q1607.6183859955142 480.42353808941976 1612.742188464664 483.10743462087896Q1617.8659909338132 485.79133115233816 1624.2097463718076 485.79133115233816L1624.2097463718076 485.79133115233816Q1630.4450615459048 485.79133115233816 1635.0808828275165 484.8695889092108Q1639.7167041091277 483.94784666608336 1643.051242223971 482.61945343334094Q1646.3586702728398 481.31817026657285 1648.4732554188383 479.93555690188174Q1650.5607304988619 478.5800536031649 1651.7264633357584 477.7938616899092L1651.7264633357584 477.7938616899092ZM1610.5462731207429 436.31546074917577L1646.1688998110196 436.31546074917577Q1646.277340074917 435.23105811020235 1646.3044501408913 434.1737655372033Q1646.3586702728398 433.08936289822987 1646.3586702728398 432.0320703252308L1646.3586702728398 432.0320703252308Q1646.3586702728398 426.44739673451767 1645.0844971720462 421.7844653869319Q1643.8374341372266 417.0944239733719 1641.2348678036906 413.6243355286569Q1638.6594115361286 410.154247083942 1634.647121771927 408.2023223337898Q1630.6619420736995 406.25039758363766 1625.1857087468838 406.25039758363766L1625.1857087468838 406.25039758363766Q1618.652182847069 406.25039758363766 1614.0163615654576 408.3649827296358Q1609.3805402838461 410.4524578096597 1606.208662564849 413.73277579255426Q1603.0367848458516 416.9859837094745 1601.1390802276483 420.8898332097788Q1599.2142655434704 424.79368271008315 1598.2383031683944 428.3179912867468L1598.2383031683944 428.3179912867468L1593.1687208311935 438.94513714868634L1610.5462731207429 436.31546074917577Z " fill="#ec449b" transform="matrix(0.5256163994369814,0,0,0.5256163994369814,0,75.71689597684528)"/></g></svg>